<svg width="298" height="112" viewBox="0 0 298 112" fill="none" xmlns="http://www.w3.org/2000/svg">
<path d="M144.212 33.8711H138.552C138.399 33.8755 138.246 33.8693 138.093 33.8527C138.031 33.8506 137.97 33.8356 137.914 33.8087C137.858 33.7817 137.809 33.7434 137.768 33.6961C137.728 33.6489 137.698 33.5938 137.68 33.5343C137.663 33.4748 137.657 33.4123 137.665 33.3507C137.668 33.2332 137.717 33.1216 137.801 33.0392C137.884 32.9569 137.997 32.9102 138.114 32.9089C138.222 32.9034 138.329 32.9034 138.437 32.9089H150.035C150.158 32.8997 150.282 32.903 150.404 32.9188C150.52 32.9315 150.627 32.9887 150.702 33.0784C150.777 33.1681 150.815 33.2833 150.807 33.3999C150.813 33.5091 150.778 33.6167 150.707 33.7001C150.636 33.7834 150.535 33.8359 150.426 33.8465C150.275 33.8683 150.122 33.8778 149.969 33.8748L144.212 33.8711Z" fill="#0B2545"/>
<path d="M144.742 24.3804H150.448C150.586 24.3761 150.724 24.381 150.861 24.3952C150.97 24.4022 151.072 24.451 151.146 24.5315C151.219 24.612 151.259 24.7179 151.257 24.8271C151.269 24.9357 151.24 25.0448 151.176 25.1334C151.112 25.2221 151.018 25.2839 150.911 25.307C150.776 25.3348 150.639 25.3435 150.501 25.3328H138.856C138.733 25.344 138.609 25.3386 138.487 25.3168C138.372 25.2963 138.268 25.2324 138.198 25.1381C138.128 25.0439 138.097 24.9264 138.111 24.8099C138.113 24.7004 138.158 24.5961 138.235 24.5184C138.312 24.4406 138.416 24.3952 138.525 24.3915C138.662 24.3792 138.801 24.3792 138.939 24.3792L144.742 24.3804Z" fill="#0B2545"/>
<path d="M149.231 22.5101H145.235C145.111 22.5101 144.988 22.5101 144.865 22.5101C144.563 22.5027 144.356 22.3662 144.354 22.0475C144.354 21.7054 144.566 21.5627 144.89 21.5627C145.762 21.5627 146.635 21.5627 147.508 21.5627C149.395 21.5627 151.279 21.5627 153.159 21.5627C153.251 21.5627 153.343 21.5627 153.434 21.5627C153.778 21.5528 154.116 21.5787 154.126 22.0278C154.136 22.4769 153.805 22.52 153.457 22.52C152.461 22.52 151.466 22.52 150.47 22.52L149.231 22.5101Z" fill="#0B2545"/>
<path d="M146.177 28.2109C144.965 28.2109 143.752 28.2109 142.54 28.2109C142.185 28.2109 141.915 28.1248 141.925 27.7187C141.933 27.336 142.2 27.2622 142.531 27.2634C144.972 27.2684 147.412 27.2684 149.851 27.2634C150.186 27.2634 150.438 27.3471 150.442 27.7347C150.446 28.1223 150.196 28.2134 149.859 28.2121C148.631 28.2035 147.4 28.2109 146.177 28.2109Z" fill="#0B2545"/>
<path d="M129.878 45.7587C128.837 45.7587 127.796 45.7587 126.755 45.7587C126.417 45.7587 126.122 45.6947 126.117 45.2812C126.112 44.8678 126.395 44.7891 126.732 44.7891C128.83 44.7891 130.929 44.7891 133.027 44.7891C133.365 44.7891 133.661 44.8518 133.666 45.2653C133.671 45.6787 133.386 45.7574 133.043 45.7574C131.992 45.7562 130.935 45.7587 129.878 45.7587Z" fill="#0B2545"/>
<path d="M129.543 40.8318C128.435 40.8318 127.337 40.8318 126.234 40.8318C125.877 40.8318 125.562 40.7752 125.578 40.331C125.593 39.92 125.898 39.8757 126.235 39.877C128.457 39.877 130.678 39.877 132.898 39.877C133.267 39.877 133.569 39.9557 133.558 40.3802C133.547 40.7851 133.233 40.8355 132.897 40.8331C131.774 40.8281 130.666 40.8318 129.543 40.8318Z" fill="#0B2545"/>
<path d="M132.334 48.7155C131.676 48.7155 131.019 48.7155 130.366 48.7155C130.032 48.7155 129.779 48.6072 129.769 48.2393C129.759 47.8713 130.006 47.7471 130.341 47.7471H134.424C134.758 47.7471 135.004 47.8701 134.997 48.2393C134.99 48.6084 134.734 48.7167 134.402 48.7142C133.71 48.713 133.022 48.7155 132.334 48.7155Z" fill="#0B2545"/>
<path d="M129.533 55.2418H127.564C127.218 55.2418 126.939 55.1397 126.949 54.7349C126.961 54.3596 127.236 54.2722 127.564 54.2735H131.601C131.932 54.2735 132.194 54.3903 132.196 54.7558C132.197 55.1212 131.935 55.2418 131.604 55.2418H129.533Z" fill="#0B2545"/>
<path d="M147.783 30.9881H146.267C145.947 30.9881 145.725 30.8651 145.727 30.5144C145.73 30.1637 145.94 30.0358 146.265 30.037H149.389C149.725 30.037 149.916 30.2006 149.908 30.5292C149.901 30.8577 149.698 30.982 149.39 30.982C148.855 30.9857 148.318 30.9869 147.783 30.9881Z" fill="#0B2545"/>
<path d="M166.506 24.8886C164.586 23.6861 162.668 22.481 160.752 21.2735C160.637 21.1874 160.498 21.1387 160.354 21.1338C160.21 21.129 160.068 21.1683 159.947 21.2465C157.714 22.454 155.475 23.6504 153.232 24.8357C153.088 24.9045 152.965 25.0104 152.876 25.1427C152.787 25.2749 152.735 25.4285 152.726 25.5876C152.409 27.955 152.081 30.322 151.741 32.6886C151.692 33.0368 151.778 33.2694 152.082 33.4589C154.018 34.6631 155.951 35.8739 157.879 37.0912C157.978 37.1637 158.096 37.2051 158.218 37.2101C158.34 37.2152 158.461 37.1836 158.566 37.1195C160.856 35.889 163.148 34.6623 165.442 33.4392C165.55 33.3848 165.643 33.3025 165.709 33.2007C165.776 33.0988 165.814 32.9811 165.821 32.8596C165.944 31.9023 166.09 30.9487 166.223 29.9926C166.43 28.4906 166.635 26.9882 166.838 25.4854C166.89 25.1975 166.73 25.0314 166.506 24.8886ZM160.298 22.2308C160.821 22.2173 161.291 22.7624 161.782 23.0651C162.976 23.8034 164.161 24.5564 165.418 25.3464C164.89 25.6269 164.414 25.8767 163.942 26.1326C163.895 26.1571 163.841 26.1666 163.789 26.16C163.736 26.1534 163.687 26.131 163.647 26.0957C162.015 25.0806 160.381 24.0692 158.681 23.0196C159.268 22.7119 159.776 22.2468 160.298 22.2321V22.2308ZM157.525 23.6459C157.574 23.6093 157.632 23.5887 157.693 23.5867C157.754 23.5847 157.814 23.6015 157.866 23.6348C159.495 24.6528 161.129 25.6712 162.768 26.6901C161.968 27.2844 161.968 27.2831 161.203 26.8069C159.749 25.9038 158.296 25.0018 156.773 24.0556C157.074 23.892 157.303 23.7812 157.525 23.6471V23.6459ZM163.129 27.6978C163.101 28.74 163.013 28.8717 162.177 29.1399C162.166 28.4472 162.242 27.8147 163.129 27.699V27.6978ZM155.728 24.6573C156.236 24.6253 156.677 25.1495 157.142 25.4288C158.366 26.1745 159.582 26.9361 160.867 27.7323C160.346 28.0005 159.876 28.2392 159.411 28.489C159.367 28.5167 159.315 28.5301 159.263 28.5272C159.21 28.5244 159.16 28.5054 159.119 28.473C157.5 27.464 155.88 26.4575 154.197 25.4116C154.752 25.12 155.227 24.6905 155.728 24.6585V24.6573ZM158.692 29.5792C158.504 30.9536 158.313 32.3502 158.121 33.748C158.043 34.3239 157.949 34.8997 157.889 35.4781C157.856 35.8004 157.818 35.9247 157.471 35.7008C155.994 34.7496 154.494 33.8194 152.997 32.8928C152.901 32.8501 152.823 32.7746 152.778 32.6799C152.733 32.5851 152.723 32.4774 152.75 32.376C153.03 30.45 153.298 28.5222 153.553 26.5928C153.596 26.2754 153.645 26.1954 153.956 26.3923C155.443 27.336 156.943 28.2577 158.438 29.1879C158.58 29.279 158.77 29.3294 158.692 29.5829V29.5792ZM164.943 32.3145C164.916 32.5126 164.871 32.6738 164.654 32.7883C162.762 33.7862 160.879 34.8001 158.994 35.8078C158.935 35.8282 158.874 35.8438 158.813 35.8546C158.915 35.0806 159.012 34.3325 159.114 33.5856C159.288 32.3108 159.473 31.0385 159.637 29.7638C159.639 29.658 159.672 29.555 159.731 29.4676C159.791 29.3801 159.874 29.3119 159.972 29.2716C160.384 29.0796 160.782 28.8581 161.242 28.6182C161.183 29.0919 161.119 29.4992 161.083 29.9077C161.035 30.4122 161.377 30.6534 161.836 30.4282C162.426 30.1378 163 29.813 163.585 29.5201C163.693 29.4669 163.784 29.386 163.851 29.2857C163.917 29.1854 163.956 29.0693 163.962 28.9492C164.019 28.4472 164.1 27.9488 164.157 27.4468C164.185 27.1859 164.27 27.0051 164.537 26.8894C164.942 26.7147 165.322 26.4858 165.781 26.2459C165.494 28.3192 165.22 30.3187 164.943 32.3182V32.3145Z" fill="#0B2545"/>
<path d="M140.89 56.5769C139.906 56.5424 139.017 57.4481 138.996 58.5013C138.979 59.3627 139.58 59.9459 140.48 59.957C141.465 59.9693 142.359 59.076 142.396 58.0362C142.427 57.2303 141.782 56.6064 140.89 56.5769ZM140.451 58.9935C140.082 58.9837 139.94 58.7585 139.943 58.4238C139.943 57.9919 140.435 57.5625 140.901 57.5489C141.27 57.5416 141.425 57.736 141.424 58.0867C141.423 58.5407 140.931 59.0058 140.451 58.9935Z" fill="#0B2545"/>
<path d="M163.615 56.5769C162.631 56.5769 161.754 57.4899 161.75 58.5346C161.75 59.3676 162.385 59.9619 163.279 59.9582C164.264 59.9582 165.151 59.0341 165.153 58.003C165.156 57.1811 164.504 56.5806 163.615 56.5769ZM163.246 59.0009C162.888 59.0095 162.713 58.8016 162.706 58.4657C162.694 57.9993 163.182 57.5539 163.671 57.5551C164.007 57.5551 164.174 57.7237 164.189 58.0473C164.19 58.5124 163.72 58.9899 163.244 59.0009H163.246Z" fill="#0B2545"/>
<path d="M148.886 51.3512C149.805 51.3671 150.724 51.3585 151.644 51.3512C151.89 51.3512 152.101 51.2724 152.177 51.0054C152.273 50.667 152.054 50.3988 151.643 50.3902C150.895 50.3803 150.147 50.3902 149.369 50.3902C149.453 49.909 149.545 49.4747 149.601 49.0366C149.635 48.761 149.756 48.6896 150.021 48.697C150.694 48.7155 151.375 48.697 152.044 48.7044C152.393 48.7044 152.684 48.606 152.682 48.2122C152.679 47.8185 152.388 47.72 152.039 47.7287C151.412 47.736 150.783 47.7176 150.154 47.7373C149.882 47.7459 149.848 47.6438 149.898 47.4149C149.973 47.0716 150.044 46.7258 150.092 46.3776C150.126 46.1241 150.215 46.0245 150.499 46.0355C151.172 46.0614 151.846 46.0355 152.52 46.0466C152.867 46.0466 153.166 45.9617 153.17 45.5729C153.17 45.1607 152.861 45.0585 152.501 45.0598C151.639 45.0598 150.784 45.0721 149.925 45.0598C149.506 45.0524 149.31 45.2554 149.246 45.643C148.946 47.314 148.638 48.9837 148.337 50.6547C148.262 51.1087 148.424 51.3438 148.886 51.3512Z" fill="#0B2545"/>
<path d="M145.7 50.7987C145.724 50.8548 145.752 50.9088 145.786 50.9598C145.941 51.2687 146.173 51.4791 146.517 51.2884C146.86 51.0977 146.797 50.7962 146.64 50.491C146.177 49.6297 146.181 49.6297 146.843 48.8828L146.874 48.8484C147.489 48.1544 147.571 47.01 147.189 46.177C146.806 45.344 146.306 44.8358 145.324 45.0967H144.586C143.981 45.0967 143.902 45.1693 143.8 45.75C143.698 46.3308 143.587 46.9227 143.48 47.5096C143.286 48.5629 143.093 49.6158 142.899 50.6682C142.84 50.9918 142.899 51.2724 143.268 51.3462C143.637 51.42 143.794 51.185 143.858 50.8614C143.895 50.6658 143.949 50.4726 143.967 50.2745C143.986 50.0764 144.068 50.0382 144.256 50.0198C144.913 49.9558 145.492 50.0198 145.7 50.7987ZM144.169 49.076C144.34 48.1335 144.51 47.2168 144.672 46.2988C144.703 46.1216 144.768 46.0195 144.968 46.0527C145.043 46.065 145.121 46.0527 145.196 46.0527C145.557 46.097 145.98 45.8805 146.209 46.412C146.369 46.7812 146.485 47.1048 146.426 47.5367C146.327 48.2479 145.802 48.622 145.348 49.0132C145.073 49.252 144.586 49.0686 144.169 49.0723V49.076Z" fill="#0B2545"/>
<path d="M141.796 45.0795C140.862 45.0696 139.927 45.0721 138.993 45.0795C138.861 45.0686 138.73 45.1103 138.629 45.1957C138.527 45.281 138.464 45.4029 138.452 45.5348C138.14 47.2664 137.826 48.9969 137.51 50.7261C137.45 51.0546 137.559 51.2761 137.899 51.3278C138.238 51.3795 138.403 51.1888 138.46 50.8701C138.571 50.2548 138.706 49.6396 138.796 49.0244C138.833 48.7783 138.919 48.6983 139.165 48.7045C139.839 48.7217 140.518 48.7045 141.187 48.7118C141.542 48.7118 141.863 48.6466 141.855 48.2123C141.847 47.8074 141.54 47.7398 141.204 47.7422C140.5 47.7422 139.797 47.7422 139.031 47.7422C139.122 47.2402 139.22 46.7911 139.277 46.3383C139.308 46.0922 139.423 46.0479 139.639 46.0516C140.344 46.0614 141.049 46.0516 141.753 46.0516C142.088 46.0516 142.338 45.9396 142.339 45.5655C142.346 45.2173 142.102 45.0832 141.796 45.0795Z" fill="#0B2545"/>
<path d="M172.01 56.5547C171.61 56.4944 171.668 56.2767 171.716 56.017C171.95 54.7677 172.183 53.5183 172.415 52.269C172.592 51.3265 172.379 50.5267 171.656 49.8487C170.624 48.8852 169.629 47.8799 168.622 46.8956C168.357 46.6335 167.916 46.4034 168.354 45.9395C168.373 45.921 168.368 45.8804 168.373 45.8509C168.558 44.7595 167.714 43.6963 166.606 43.6631C165.732 43.636 164.856 43.6545 163.982 43.6533H161.571C161.739 42.7058 161.895 41.8014 162.063 40.8983C162.261 39.8154 161.651 39.0341 160.559 39.0341C153.285 39.0283 146.013 39.0283 138.741 39.0341C137.727 39.0341 137.001 39.6493 136.79 40.6423C136.714 41.0016 136.636 41.3621 136.592 41.7264C136.556 42.0167 136.422 42.0857 136.143 42.0832C134.654 42.0684 133.166 42.0758 131.678 42.0758H130.803C130.495 42.0758 130.287 42.2272 130.285 42.536C130.285 42.867 130.495 43.0282 130.825 43.0282H131.147C132.747 43.0282 134.338 43.0282 135.934 43.0282C136.225 43.0282 136.355 43.0282 136.281 43.4084C135.83 45.7389 135.419 48.0768 134.988 50.411C134.798 51.436 134.791 51.4348 133.73 51.4348C132.486 51.4348 131.243 51.4348 130 51.4348C129.694 51.4348 129.443 51.5455 129.436 51.8986C129.428 52.2678 129.682 52.3908 130.009 52.4031H130.286C131.605 52.4031 132.925 52.4117 134.244 52.397C134.54 52.397 134.648 52.4487 134.584 52.7661C134.36 53.908 134.153 55.0536 133.95 56.1991C133.92 56.3775 133.865 56.4514 133.671 56.4772C133.173 56.5437 132.883 56.8464 132.81 57.3509C132.769 57.6228 132.703 57.891 132.664 58.1642C132.557 58.9222 132.822 59.231 133.58 59.2335C134.546 59.2335 135.513 59.2445 136.479 59.2335C136.794 59.2335 136.94 59.279 137.029 59.6444C137.334 60.9069 138.136 61.6981 139.444 61.911C141.245 62.2038 143.149 61.2268 143.997 59.5645C144.12 59.3307 144.236 59.231 144.511 59.2322C149.451 59.2421 154.392 59.2421 159.334 59.2322C159.609 59.2322 159.711 59.2999 159.78 59.5878C160.092 60.8897 160.895 61.703 162.241 61.9159C164.013 62.1952 165.922 61.2108 166.75 59.5682C166.79 59.4573 166.867 59.3634 166.968 59.3021C167.069 59.2409 167.188 59.2158 167.305 59.231C168.658 59.247 170.005 59.231 171.355 59.2396C171.808 59.2396 172.145 59.0526 172.274 58.6244C172.418 58.1865 172.5 57.7311 172.521 57.2709C172.528 56.9067 172.362 56.6076 172.01 56.5547ZM168.099 47.9193C168.16 47.9142 168.222 47.9226 168.279 47.9438C168.336 47.9651 168.388 47.9987 168.43 48.0424C169.305 48.98 170.181 49.9151 171.023 50.8146C169.417 50.8146 167.701 50.8146 165.993 50.8146C165.758 50.8146 165.716 50.7531 165.764 50.5217C165.919 49.7576 166.052 48.9898 166.181 48.2208C166.218 48.0017 166.304 47.907 166.539 47.9132C167.054 47.9316 167.58 47.923 168.095 47.9193H168.099ZM161.297 45.1914C161.359 44.9736 161.184 44.586 161.644 44.5872H162.7C163.926 44.5872 165.151 44.5872 166.376 44.5872C166.752 44.5872 167.068 44.6992 167.278 45.0289C167.423 45.2578 167.456 45.4104 167.083 45.4042C166.149 45.3882 165.215 45.4042 164.281 45.4042C163.393 45.4042 162.506 45.4042 161.617 45.4042C161.484 45.3956 161.21 45.5002 161.297 45.1914ZM135.162 54.8395C135.23 54.6684 135.095 54.3707 135.432 54.3473C135.583 54.3387 135.737 54.3473 135.89 54.3473C135.935 54.3411 135.981 54.3411 136.026 54.3473C136.186 54.3903 136.444 54.2242 136.495 54.4519C136.54 54.65 136.394 54.8579 136.214 54.9957C135.917 55.2246 135.568 55.1458 135.241 55.1299C135.056 55.1286 135.128 54.9317 135.162 54.8419V54.8395ZM137.131 57.5539C136.932 58.2922 136.93 58.2922 136.158 58.2922H133.635C133.724 57.4468 133.724 57.4468 134.543 57.4468H137.1C137.114 57.5047 137.132 57.5342 137.126 57.5563L137.131 57.5539ZM143.515 58.0165C143.285 59.6715 141.713 61.0373 140.036 61.0398C138.748 61.0398 137.875 60.112 137.888 58.7499C137.904 56.8587 140.025 55.1471 141.86 55.5507C142.924 55.7734 143.667 56.8882 143.51 58.019L143.515 58.0165ZM144.163 56.2779C143.486 54.7779 141.801 54.1861 140.047 54.7484C139.172 55.0087 138.401 55.5399 137.846 56.2656C137.802 56.3348 137.74 56.3908 137.666 56.4278C137.593 56.4648 137.511 56.4815 137.429 56.476C136.677 56.4661 135.924 56.476 135.172 56.4674C135.075 56.4674 134.898 56.556 134.89 56.3517C134.883 56.1475 134.996 56.0773 135.188 56.1056C135.234 56.1118 135.28 56.1056 135.326 56.1056C136.897 56.2287 137.43 55.3759 137.554 54.0458C137.596 53.5967 137.445 53.4244 136.991 53.4146C136.607 53.406 136.223 53.3961 135.84 53.4146C135.54 53.4318 135.357 53.3924 135.502 53.0344C135.511 53.005 135.515 52.9741 135.513 52.9433C135.523 52.52 135.699 52.3035 136.157 52.397C136.293 52.4206 136.433 52.4176 136.569 52.3884C136.626 52.3797 136.681 52.3598 136.73 52.3298C136.78 52.2999 136.823 52.2605 136.857 52.2138C136.892 52.1672 136.916 52.1143 136.93 52.0581C136.944 52.0019 136.947 51.9435 136.938 51.8863C136.921 51.6255 136.768 51.4803 136.495 51.4471C136.265 51.4188 135.934 51.5787 135.83 51.3437C135.749 51.1591 135.894 50.8749 135.939 50.6337C136.377 48.238 136.822 45.8447 137.243 43.4453C137.3 43.1254 137.389 43.011 137.728 43.0196C138.663 43.0454 139.601 43.0196 140.536 43.0319C140.888 43.0319 141.166 42.9433 141.151 42.5397C141.141 42.1607 140.868 42.082 140.536 42.0857C139.646 42.093 138.755 42.0697 137.866 42.0967C137.517 42.1066 137.479 41.9737 137.554 41.6981C137.554 41.6833 137.562 41.6685 137.565 41.6538C137.88 40.0025 137.905 39.9816 139.583 39.9816H160.307C161.093 39.9816 161.235 40.1427 161.096 40.9093C160.176 45.9739 159.257 51.0377 158.337 56.1007C158.284 56.3923 158.182 56.4957 157.868 56.4932C155.659 56.4772 153.45 56.4846 151.24 56.4846C149.03 56.4846 146.851 56.4846 144.657 56.4846C144.47 56.4821 144.275 56.5412 144.158 56.2803L144.163 56.2779ZM158.912 58.2995C154.22 58.2995 149.528 58.2995 144.836 58.2995C144.676 58.2995 144.375 58.4226 144.457 58.0534C144.508 57.827 144.265 57.453 144.809 57.4542C149.778 57.4677 154.745 57.4616 159.713 57.4628C159.774 57.4658 159.834 57.4724 159.895 57.4825C159.705 58.302 159.705 58.302 158.907 58.302L158.912 58.2995ZM162.434 61.0066C161.3 60.7974 160.613 59.9594 160.634 58.809C160.666 56.9633 162.48 55.3353 164.326 55.5064C164.849 55.5559 165.336 55.7949 165.695 56.1782C166.055 56.5616 166.262 57.0631 166.277 57.5883C166.325 59.53 164.279 61.3499 162.429 61.0103L162.434 61.0066ZM166.937 56.3173C165.72 54.5097 164.13 54.0667 162.209 54.9859C161.594 55.2688 161.055 55.6935 160.635 56.225C160.485 56.4194 159.507 56.5941 159.321 56.4501C159.186 56.3468 159.275 56.1954 159.297 56.0736C159.565 54.5663 159.842 53.0602 160.117 51.5541C160.416 49.9274 160.727 48.3032 161.01 46.6728C161.059 46.3911 161.168 46.3345 161.427 46.3357C163.083 46.3455 164.74 46.3541 166.397 46.3357C166.839 46.3295 166.969 46.6864 167.218 46.9718C166.933 46.9718 166.648 46.9657 166.357 46.9718C165.767 46.9866 165.373 47.309 165.26 47.8836C165.089 48.786 164.927 49.6904 164.774 50.5968C164.65 51.3486 165.007 51.767 165.783 51.7694C167.516 51.7694 169.25 51.7694 170.982 51.7694H171.481C171.49 51.8098 171.495 51.8511 171.496 51.8925C171.398 52.3847 171.455 53.0442 171.156 53.3272C170.857 53.6102 170.191 53.3998 169.688 53.4084C168.999 53.4207 168.961 53.4404 168.835 54.1467C168.787 54.3867 168.758 54.6304 168.749 54.8751C168.743 55.5519 169.139 55.9986 169.817 56.0847C170.031 56.1036 170.246 56.1114 170.461 56.1081C170.584 56.1081 170.707 56.0773 170.697 56.2816C170.686 56.4514 170.595 56.4784 170.451 56.4748C170.282 56.4686 170.113 56.4748 169.944 56.4748H167.324C167.175 56.4723 167.044 56.4871 166.932 56.3209L166.937 56.3173ZM171.026 54.4851C170.912 55.1323 170.584 55.323 169.934 55.136C169.703 55.0683 169.656 54.9182 169.698 54.7176C169.736 54.538 169.718 54.3177 170.029 54.3485C170.34 54.3793 170.69 54.3547 171.013 54.3547C171.021 54.3977 171.025 54.4413 171.026 54.4851ZM171.494 57.6597C171.446 57.9144 171.582 58.3315 171.028 58.3069C170.125 58.2651 169.218 58.2958 168.314 58.2958C168.115 58.2798 167.915 58.2798 167.717 58.2958C167.248 58.3734 167.145 58.1826 167.214 57.7471C167.25 57.5157 167.305 57.4345 167.543 57.4407C168.171 57.4542 168.8 57.4407 169.428 57.4407C169.981 57.4407 170.536 57.4259 171.085 57.4493C171.225 57.4665 171.558 57.2893 171.491 57.6597H171.494Z" fill="#0B2545"/>
<path d="M154.344 51.3524C155.248 51.3659 156.154 51.3597 157.058 51.3524C157.387 51.3524 157.643 51.2293 157.623 50.8479C157.604 50.4664 157.34 50.3852 157.014 50.3889C156.507 50.3889 156.001 50.3889 155.496 50.3889C154.812 50.3889 154.812 50.3889 154.929 49.7331C154.965 49.5214 155.017 49.311 155.033 49.0981C155.055 48.8028 155.168 48.6798 155.491 48.6933C156.149 48.7204 156.81 48.6933 157.469 48.7044C157.814 48.7044 158.118 48.6207 158.124 48.2319C158.131 47.8123 157.813 47.7274 157.451 47.7323C156.836 47.7409 156.22 47.7323 155.611 47.7385C155.381 47.7385 155.267 47.7102 155.335 47.4382C155.425 47.0818 155.495 46.7202 155.543 46.3554C155.575 46.1093 155.666 46.0355 155.919 46.0404C156.624 46.0564 157.33 46.0404 158.035 46.0404C158.376 46.0404 158.615 45.8854 158.598 45.5236C158.582 45.1865 158.343 45.0647 158.023 45.0671C157.564 45.0671 157.103 45.0671 156.643 45.0671C156.244 45.0671 155.844 45.088 155.447 45.0671C154.967 45.0339 154.753 45.2541 154.674 45.7082C154.387 47.3521 154.084 48.9935 153.787 50.6301C153.698 51.1186 153.856 51.3437 154.344 51.3524Z" fill="#0B2545"/>
<path d="M104.535 78.53V80.225H100.17V82.91H103.515V84.575H100.17V89H98.0697V78.53H104.535ZM108.124 81.98C108.394 81.54 108.744 81.195 109.174 80.945C109.614 80.695 110.114 80.57 110.674 80.57V82.775H110.119C109.459 82.775 108.959 82.93 108.619 83.24C108.289 83.55 108.124 84.09 108.124 84.86V89H106.024V80.69H108.124V81.98ZM119.813 84.665C119.813 84.965 119.793 85.235 119.753 85.475H113.678C113.728 86.075 113.938 86.545 114.308 86.885C114.678 87.225 115.133 87.395 115.673 87.395C116.453 87.395 117.008 87.06 117.338 86.39H119.603C119.363 87.19 118.903 87.85 118.223 88.37C117.543 88.88 116.708 89.135 115.718 89.135C114.918 89.135 114.198 88.96 113.558 88.61C112.928 88.25 112.433 87.745 112.073 87.095C111.723 86.445 111.548 85.695 111.548 84.845C111.548 83.985 111.723 83.23 112.073 82.58C112.423 81.93 112.913 81.43 113.543 81.08C114.173 80.73 114.898 80.555 115.718 80.555C116.508 80.555 117.213 80.725 117.833 81.065C118.463 81.405 118.948 81.89 119.288 82.52C119.638 83.14 119.813 83.855 119.813 84.665ZM117.638 84.065C117.628 83.525 117.433 83.095 117.053 82.775C116.673 82.445 116.208 82.28 115.658 82.28C115.138 82.28 114.698 82.44 114.338 82.76C113.988 83.07 113.773 83.505 113.693 84.065H117.638ZM129.071 84.665C129.071 84.965 129.051 85.235 129.011 85.475H122.936C122.986 86.075 123.196 86.545 123.566 86.885C123.936 87.225 124.391 87.395 124.931 87.395C125.711 87.395 126.266 87.06 126.596 86.39H128.861C128.621 87.19 128.161 87.85 127.481 88.37C126.801 88.88 125.966 89.135 124.976 89.135C124.176 89.135 123.456 88.96 122.816 88.61C122.186 88.25 121.691 87.745 121.331 87.095C120.981 86.445 120.806 85.695 120.806 84.845C120.806 83.985 120.981 83.23 121.331 82.58C121.681 81.93 122.171 81.43 122.801 81.08C123.431 80.73 124.156 80.555 124.976 80.555C125.766 80.555 126.471 80.725 127.091 81.065C127.721 81.405 128.206 81.89 128.546 82.52C128.896 83.14 129.071 83.855 129.071 84.665ZM126.896 84.065C126.886 83.525 126.691 83.095 126.311 82.775C125.931 82.445 125.466 82.28 124.916 82.28C124.396 82.28 123.956 82.44 123.596 82.76C123.246 83.07 123.031 83.505 122.951 84.065H126.896ZM137.793 89.105C137.063 89.105 136.403 88.98 135.813 88.73C135.233 88.48 134.773 88.12 134.433 87.65C134.093 87.18 133.918 86.625 133.908 85.985H136.158C136.188 86.415 136.338 86.755 136.608 87.005C136.888 87.255 137.268 87.38 137.748 87.38C138.238 87.38 138.623 87.265 138.903 87.035C139.183 86.795 139.323 86.485 139.323 86.105C139.323 85.795 139.228 85.54 139.038 85.34C138.848 85.14 138.608 84.985 138.318 84.875C138.038 84.755 137.648 84.625 137.148 84.485C136.468 84.285 135.913 84.09 135.483 83.9C135.063 83.7 134.698 83.405 134.388 83.015C134.088 82.615 133.938 82.085 133.938 81.425C133.938 80.805 134.093 80.265 134.403 79.805C134.713 79.345 135.148 78.995 135.708 78.755C136.268 78.505 136.908 78.38 137.628 78.38C138.708 78.38 139.583 78.645 140.253 79.175C140.933 79.695 141.308 80.425 141.378 81.365H139.068C139.048 81.005 138.893 80.71 138.603 80.48C138.323 80.24 137.948 80.12 137.478 80.12C137.068 80.12 136.738 80.225 136.488 80.435C136.248 80.645 136.128 80.95 136.128 81.35C136.128 81.63 136.218 81.865 136.398 82.055C136.588 82.235 136.818 82.385 137.088 82.505C137.368 82.615 137.758 82.745 138.258 82.895C138.938 83.095 139.493 83.295 139.923 83.495C140.353 83.695 140.723 83.995 141.033 84.395C141.343 84.795 141.498 85.32 141.498 85.97C141.498 86.53 141.353 87.05 141.063 87.53C140.773 88.01 140.348 88.395 139.788 88.685C139.228 88.965 138.563 89.105 137.793 89.105ZM147.999 80.57C148.629 80.57 149.189 80.71 149.679 80.99C150.169 81.26 150.549 81.665 150.819 82.205C151.099 82.735 151.239 83.375 151.239 84.125V89H149.139V84.41C149.139 83.75 148.974 83.245 148.644 82.895C148.314 82.535 147.864 82.355 147.294 82.355C146.714 82.355 146.254 82.535 145.914 82.895C145.584 83.245 145.419 83.75 145.419 84.41V89H143.319V77.9H145.419V81.725C145.689 81.365 146.049 81.085 146.499 80.885C146.949 80.675 147.449 80.57 147.999 80.57ZM154.301 79.7C153.931 79.7 153.621 79.585 153.371 79.355C153.131 79.115 153.011 78.82 153.011 78.47C153.011 78.12 153.131 77.83 153.371 77.6C153.621 77.36 153.931 77.24 154.301 77.24C154.671 77.24 154.976 77.36 155.216 77.6C155.466 77.83 155.591 78.12 155.591 78.47C155.591 78.82 155.466 79.115 155.216 79.355C154.976 79.585 154.671 79.7 154.301 79.7ZM155.336 80.69V89H153.236V80.69H155.336ZM159.51 81.89C159.78 81.51 160.15 81.195 160.62 80.945C161.1 80.685 161.645 80.555 162.255 80.555C162.965 80.555 163.605 80.73 164.175 81.08C164.755 81.43 165.21 81.93 165.54 82.58C165.88 83.22 166.05 83.965 166.05 84.815C166.05 85.665 165.88 86.42 165.54 87.08C165.21 87.73 164.755 88.235 164.175 88.595C163.605 88.955 162.965 89.135 162.255 89.135C161.645 89.135 161.105 89.01 160.635 88.76C160.175 88.51 159.8 88.195 159.51 87.815V92.96H157.41V80.69H159.51V81.89ZM163.905 84.815C163.905 84.315 163.8 83.885 163.59 83.525C163.39 83.155 163.12 82.875 162.78 82.685C162.45 82.495 162.09 82.4 161.7 82.4C161.32 82.4 160.96 82.5 160.62 82.7C160.29 82.89 160.02 83.17 159.81 83.54C159.61 83.91 159.51 84.345 159.51 84.845C159.51 85.345 159.61 85.78 159.81 86.15C160.02 86.52 160.29 86.805 160.62 87.005C160.96 87.195 161.32 87.29 161.7 87.29C162.09 87.29 162.45 87.19 162.78 86.99C163.12 86.79 163.39 86.505 163.59 86.135C163.8 85.765 163.905 85.325 163.905 84.815ZM169.677 81.89C169.947 81.51 170.317 81.195 170.787 80.945C171.267 80.685 171.812 80.555 172.422 80.555C173.132 80.555 173.772 80.73 174.342 81.08C174.922 81.43 175.377 81.93 175.707 82.58C176.047 83.22 176.217 83.965 176.217 84.815C176.217 85.665 176.047 86.42 175.707 87.08C175.377 87.73 174.922 88.235 174.342 88.595C173.772 88.955 173.132 89.135 172.422 89.135C171.812 89.135 171.272 89.01 170.802 88.76C170.342 88.51 169.967 88.195 169.677 87.815V92.96H167.577V80.69H169.677V81.89ZM174.072 84.815C174.072 84.315 173.967 83.885 173.757 83.525C173.557 83.155 173.287 82.875 172.947 82.685C172.617 82.495 172.257 82.4 171.867 82.4C171.487 82.4 171.127 82.5 170.787 82.7C170.457 82.89 170.187 83.17 169.977 83.54C169.777 83.91 169.677 84.345 169.677 84.845C169.677 85.345 169.777 85.78 169.977 86.15C170.187 86.52 170.457 86.805 170.787 87.005C171.127 87.195 171.487 87.29 171.867 87.29C172.257 87.29 172.617 87.19 172.947 86.99C173.287 86.79 173.557 86.505 173.757 86.135C173.967 85.765 174.072 85.325 174.072 84.815ZM178.808 79.7C178.438 79.7 178.128 79.585 177.878 79.355C177.638 79.115 177.518 78.82 177.518 78.47C177.518 78.12 177.638 77.83 177.878 77.6C178.128 77.36 178.438 77.24 178.808 77.24C179.178 77.24 179.483 77.36 179.723 77.6C179.973 77.83 180.098 78.12 180.098 78.47C180.098 78.82 179.973 79.115 179.723 79.355C179.483 79.585 179.178 79.7 178.808 79.7ZM179.843 80.69V89H177.743V80.69H179.843ZM186.522 80.57C187.512 80.57 188.312 80.885 188.922 81.515C189.532 82.135 189.837 83.005 189.837 84.125V89H187.737V84.41C187.737 83.75 187.572 83.245 187.242 82.895C186.912 82.535 186.462 82.355 185.892 82.355C185.312 82.355 184.852 82.535 184.512 82.895C184.182 83.245 184.017 83.75 184.017 84.41V89H181.917V80.69H184.017V81.725C184.297 81.365 184.652 81.085 185.082 80.885C185.522 80.675 186.002 80.57 186.522 80.57ZM195.089 80.555C195.709 80.555 196.254 80.68 196.724 80.93C197.194 81.17 197.564 81.485 197.834 81.875V80.69H199.949V89.06C199.949 89.83 199.794 90.515 199.484 91.115C199.174 91.725 198.709 92.205 198.089 92.555C197.469 92.915 196.719 93.095 195.839 93.095C194.659 93.095 193.689 92.82 192.929 92.27C192.179 91.72 191.754 90.97 191.654 90.02H193.739C193.849 90.4 194.084 90.7 194.444 90.92C194.814 91.15 195.259 91.265 195.779 91.265C196.389 91.265 196.884 91.08 197.264 90.71C197.644 90.35 197.834 89.8 197.834 89.06V87.77C197.564 88.16 197.189 88.485 196.709 88.745C196.239 89.005 195.699 89.135 195.089 89.135C194.389 89.135 193.749 88.955 193.169 88.595C192.589 88.235 192.129 87.73 191.789 87.08C191.459 86.42 191.294 85.665 191.294 84.815C191.294 83.975 191.459 83.23 191.789 82.58C192.129 81.93 192.584 81.43 193.154 81.08C193.734 80.73 194.379 80.555 195.089 80.555ZM197.834 84.845C197.834 84.335 197.734 83.9 197.534 83.54C197.334 83.17 197.064 82.89 196.724 82.7C196.384 82.5 196.019 82.4 195.629 82.4C195.239 82.4 194.879 82.495 194.549 82.685C194.219 82.875 193.949 83.155 193.739 83.525C193.539 83.885 193.439 84.315 193.439 84.815C193.439 85.315 193.539 85.755 193.739 86.135C193.949 86.505 194.219 86.79 194.549 86.99C194.889 87.19 195.249 87.29 195.629 87.29C196.019 87.29 196.384 87.195 196.724 87.005C197.064 86.805 197.334 86.525 197.534 86.165C197.734 85.795 197.834 85.355 197.834 84.845Z" fill="#33333F"/>
</svg>
